G04*
G04 #@! TF.GenerationSoftware,Altium Limited,Altium Designer,20.2.6 (244)*
G04*
G04 Layer_Color=16711935*
%FSLAX25Y25*%
%MOIN*%
G70*
G04*
G04 #@! TF.SameCoordinates,C884C1E4-69B8-4AE2-8FFD-ECE4C5FCCFCF*
G04*
G04*
G04 #@! TF.FilePolarity,Negative*
G04*
G01*
G75*
%ADD32R,0.05131X0.07493*%
%ADD33R,0.03162X0.02769*%
%ADD35C,0.05800*%
%ADD36C,0.06800*%
%ADD37R,0.06800X0.06800*%
%ADD38R,0.07099X0.07099*%
%ADD39C,0.07099*%
%ADD50R,0.03850X0.02200*%
D32*
X110685Y167000D02*
D03*
X121315D02*
D03*
X110685Y157500D02*
D03*
X121315D02*
D03*
D33*
X144968Y155000D02*
D03*
X141032D02*
D03*
D35*
X193000Y125500D02*
D03*
X183000D02*
D03*
Y135500D02*
D03*
X193000D02*
D03*
X132000D02*
D03*
X122000D02*
D03*
Y125500D02*
D03*
X132000D02*
D03*
X129000Y176000D02*
D03*
X139500Y146500D02*
D03*
X180500Y150500D02*
D03*
X207000Y141000D02*
D03*
X211000Y168000D02*
D03*
X186500Y108500D02*
D03*
X129000Y157681D02*
D03*
X142000Y165000D02*
D03*
X104500Y162500D02*
D03*
X135000Y111000D02*
D03*
D36*
X203000Y125500D02*
D03*
X173000D02*
D03*
X203000Y135500D02*
D03*
X142000D02*
D03*
X112000Y125500D02*
D03*
X142000D02*
D03*
D37*
X173000Y135500D02*
D03*
X112000D02*
D03*
D38*
X169000Y187500D02*
D03*
X106000D02*
D03*
D39*
X179000D02*
D03*
X189000D02*
D03*
X199000D02*
D03*
X209000D02*
D03*
X116000D02*
D03*
X126000D02*
D03*
X136000D02*
D03*
X146000D02*
D03*
D50*
X137250Y169000D02*
D03*
Y161520D02*
D03*
X148000D02*
D03*
Y165260D02*
D03*
Y169000D02*
D03*
M02*
