G04*
G04 #@! TF.GenerationSoftware,Altium Limited,Altium Designer,20.2.6 (244)*
G04*
G04 Layer_Color=16711935*
%FSLAX25Y25*%
%MOIN*%
G70*
G04*
G04 #@! TF.SameCoordinates,3D9D0793-F909-40A4-A9C6-13FCBE95DCC9*
G04*
G04*
G04 #@! TF.FilePolarity,Positive*
G04*
G01*
G75*
%ADD10C,0.01000*%
%ADD11C,0.00600*%
D10*
X154950Y105000D02*
G03*
X160049Y105000I2550J0D01*
G01*
Y195500D02*
G03*
X154950Y195500I-2550J0D01*
G01*
X215000Y201500D02*
Y209500D01*
X100000Y201500D02*
Y209500D01*
X175994Y208500D02*
X215000D01*
X100000D02*
X135806D01*
X209000Y210500D02*
X215000Y208500D01*
X209000Y206500D02*
X215000Y208500D01*
X100000D02*
X106000Y206500D01*
X100000Y208500D02*
X106000Y210500D01*
X80000Y200000D02*
X98500D01*
X80000Y100000D02*
X98500D01*
X81000Y168994D02*
Y200000D01*
Y100000D02*
Y127806D01*
X79000Y194000D02*
X81000Y200000D01*
X83000Y194000D01*
X81000Y100000D02*
X83000Y106000D01*
X79000D02*
X81000Y100000D01*
X100000D02*
X215000D01*
Y200000D01*
X100000D02*
X215000D01*
X100000Y100000D02*
Y200000D01*
X154950Y105000D02*
Y195500D01*
X160049Y105000D02*
Y195500D01*
D11*
X137406Y204901D02*
X139405D01*
X138406D01*
Y210899D01*
X137406Y209899D01*
X142404Y204901D02*
X144404D01*
X143404D01*
Y210899D01*
X142404Y209899D01*
X151401Y210899D02*
X147403D01*
Y207900D01*
X149402Y208900D01*
X150402D01*
X151401Y207900D01*
Y205901D01*
X150402Y204901D01*
X148402D01*
X147403Y205901D01*
X153401Y209899D02*
X154401Y210899D01*
X156400D01*
X157399Y209899D01*
Y205901D01*
X156400Y204901D01*
X154401D01*
X153401Y205901D01*
Y209899D01*
X159399Y204901D02*
Y205901D01*
X160398D01*
Y204901D01*
X159399D01*
X164397Y209899D02*
X165397Y210899D01*
X167396D01*
X168396Y209899D01*
Y205901D01*
X167396Y204901D01*
X165397D01*
X164397Y205901D01*
Y209899D01*
X170395D02*
X171395Y210899D01*
X173394D01*
X174394Y209899D01*
Y205901D01*
X173394Y204901D01*
X171395D01*
X170395Y205901D01*
Y209899D01*
X84599Y129406D02*
Y131405D01*
Y130406D01*
X78601D01*
X79601Y129406D01*
Y134405D02*
X78601Y135404D01*
Y137404D01*
X79601Y138403D01*
X83599D01*
X84599Y137404D01*
Y135404D01*
X83599Y134405D01*
X79601D01*
Y140403D02*
X78601Y141402D01*
Y143402D01*
X79601Y144401D01*
X83599D01*
X84599Y143402D01*
Y141402D01*
X83599Y140403D01*
X79601D01*
Y146401D02*
X78601Y147400D01*
Y149400D01*
X79601Y150399D01*
X83599D01*
X84599Y149400D01*
Y147400D01*
X83599Y146401D01*
X79601D01*
X84599Y152399D02*
X83599D01*
Y153398D01*
X84599D01*
Y152399D01*
X79601Y157397D02*
X78601Y158397D01*
Y160396D01*
X79601Y161396D01*
X83599D01*
X84599Y160396D01*
Y158397D01*
X83599Y157397D01*
X79601D01*
Y163395D02*
X78601Y164395D01*
Y166394D01*
X79601Y167394D01*
X83599D01*
X84599Y166394D01*
Y164395D01*
X83599Y163395D01*
X79601D01*
M02*
