G04*
G04 #@! TF.GenerationSoftware,Altium Limited,Altium Designer,20.2.6 (244)*
G04*
G04 Layer_Color=32896*
%FSLAX25Y25*%
%MOIN*%
G70*
G04*
G04 #@! TF.SameCoordinates,C884C1E4-69B8-4AE2-8FFD-ECE4C5FCCFCF*
G04*
G04*
G04 #@! TF.FilePolarity,Positive*
G04*
G01*
G75*
%ADD12C,0.01100*%
%ADD14C,0.00600*%
%ADD15C,0.00500*%
%ADD41C,0.01000*%
%ADD51C,0.03000*%
%ADD52C,0.00800*%
D12*
X151125Y172760D02*
G03*
X151125Y172760I-500J0D01*
G01*
D14*
X138675Y171660D02*
X146575D01*
X138675Y158860D02*
X146575D01*
D15*
X166500Y172500D02*
X167499D01*
X167000D01*
Y170000D01*
X167499Y169501D01*
X167999D01*
X168499Y170000D01*
X163501Y169501D02*
X165500D01*
X163501Y171500D01*
Y172000D01*
X164001Y172500D01*
X165000D01*
X165500Y172000D01*
X208999Y155499D02*
X210999D01*
Y154000D01*
X209999D01*
X210999D01*
Y152500D01*
X206500Y155499D02*
X207500D01*
X208000Y155000D01*
Y153000D01*
X207500Y152500D01*
X206500D01*
X206000Y153000D01*
Y155000D01*
X206500Y155499D01*
X203001Y152500D02*
X205001D01*
X203001Y154500D01*
Y155000D01*
X203501Y155499D01*
X204501D01*
X205001Y155000D01*
X136000Y156000D02*
X136500Y156500D01*
X137499D01*
X137999Y156000D01*
Y154000D01*
X137499Y153500D01*
X136500D01*
X136000Y154000D01*
X135000Y156000D02*
X134500Y156500D01*
X133501D01*
X133001Y156000D01*
Y155500D01*
X133501Y155000D01*
X134001D01*
X133501D01*
X133001Y154500D01*
Y154000D01*
X133501Y153500D01*
X134500D01*
X135000Y154000D01*
X134499Y166999D02*
Y164500D01*
X133999Y164000D01*
X133000D01*
X132500Y164500D01*
Y166999D01*
X130001Y164000D02*
Y166999D01*
X131500Y165500D01*
X129501D01*
X104000Y158000D02*
X104500Y158500D01*
X105499D01*
X105999Y158000D01*
Y156000D01*
X105499Y155500D01*
X104500D01*
X104000Y156000D01*
X101001Y155500D02*
X103000D01*
X101001Y157500D01*
Y158000D01*
X101501Y158500D01*
X102500D01*
X103000Y158000D01*
X104000Y170500D02*
X104500Y171000D01*
X105499D01*
X105999Y170500D01*
Y168500D01*
X105499Y168000D01*
X104500D01*
X104000Y168500D01*
X103000Y168000D02*
X102001D01*
X102500D01*
Y171000D01*
X103000Y170500D01*
D41*
X173000Y150500D02*
X203000D01*
X163000D02*
X173000D01*
X163000Y100500D02*
Y150500D01*
Y100500D02*
X213000D01*
Y150500D01*
X203000D02*
X213000D01*
X175500Y80500D02*
Y100500D01*
Y80500D02*
X200500D01*
Y100500D01*
X177000Y80500D02*
X178000D01*
Y43500D02*
Y80500D01*
Y43500D02*
X198000D01*
Y80500D01*
X137000Y43500D02*
Y80500D01*
X117000Y43500D02*
X137000D01*
X117000D02*
Y80500D01*
X116000D02*
X117000D01*
X139500D02*
Y100500D01*
X114500Y80500D02*
X139500D01*
X114500D02*
Y100500D01*
X142000Y150500D02*
X152000D01*
Y100500D02*
Y150500D01*
X102000Y100500D02*
X152000D01*
X102000D02*
Y150500D01*
X112000D01*
X142000D01*
D51*
X174000Y154000D02*
G03*
X174000Y154000I-1000J0D01*
G01*
X113000D02*
G03*
X113000Y154000I-1000J0D01*
G01*
D52*
X163000Y175500D02*
Y200000D01*
Y175500D02*
X215000D01*
Y200000D01*
X100000Y175500D02*
Y200000D01*
Y175500D02*
X152000D01*
Y200000D01*
M02*
