G04*
G04 #@! TF.GenerationSoftware,Altium Limited,Altium Designer,20.2.6 (244)*
G04*
G04 Layer_Color=255*
%FSLAX25Y25*%
%MOIN*%
G70*
G04*
G04 #@! TF.SameCoordinates,C884C1E4-69B8-4AE2-8FFD-ECE4C5FCCFCF*
G04*
G04*
G04 #@! TF.FilePolarity,Positive*
G04*
G01*
G75*
%ADD23R,0.04331X0.06693*%
%ADD24R,0.02362X0.01968*%
%ADD45C,0.05000*%
%ADD46C,0.06000*%
%ADD47R,0.06000X0.06000*%
%ADD48R,0.06299X0.06299*%
%ADD49C,0.06299*%
%ADD50R,0.03850X0.02200*%
D23*
X110685Y167000D02*
D03*
X121315D02*
D03*
X110685Y157500D02*
D03*
X121315D02*
D03*
D24*
X144968Y155000D02*
D03*
X141032D02*
D03*
D45*
X193000Y125500D02*
D03*
X183000D02*
D03*
Y135500D02*
D03*
X193000D02*
D03*
X132000D02*
D03*
X122000D02*
D03*
Y125500D02*
D03*
X132000D02*
D03*
D46*
X203000D02*
D03*
X173000D02*
D03*
X203000Y135500D02*
D03*
X142000D02*
D03*
X112000Y125500D02*
D03*
X142000D02*
D03*
D47*
X173000Y135500D02*
D03*
X112000D02*
D03*
D48*
X169000Y187500D02*
D03*
X106000D02*
D03*
D49*
X179000D02*
D03*
X189000D02*
D03*
X199000D02*
D03*
X209000D02*
D03*
X116000D02*
D03*
X126000D02*
D03*
X136000D02*
D03*
X146000D02*
D03*
D50*
X137250Y169000D02*
D03*
Y161520D02*
D03*
X148000D02*
D03*
Y165260D02*
D03*
Y169000D02*
D03*
M02*
