G04*
G04 #@! TF.GenerationSoftware,Altium Limited,Altium Designer,20.2.6 (244)*
G04*
G04 Layer_Color=65535*
%FSLAX25Y25*%
%MOIN*%
G70*
G04*
G04 #@! TF.SameCoordinates,C884C1E4-69B8-4AE2-8FFD-ECE4C5FCCFCF*
G04*
G04*
G04 #@! TF.FilePolarity,Positive*
G04*
G01*
G75*
%ADD10C,0.02362*%
%ADD11C,0.00984*%
%ADD12C,0.01100*%
%ADD13C,0.00787*%
%ADD14C,0.00600*%
%ADD15C,0.00500*%
D10*
X137276Y163268D02*
G03*
X137276Y163268I-1181J0D01*
G01*
D11*
X131646Y155000D02*
G03*
X131646Y155000I-492J0D01*
G01*
X180079Y167315D02*
G03*
X180079Y167315I-492J0D01*
G01*
D12*
X195000Y146500D02*
G03*
X195000Y146500I-500J0D01*
G01*
D13*
X132158Y160130D02*
X151842D01*
Y171130D01*
X132158Y160130D02*
Y171130D01*
X151842D01*
X166791Y160327D02*
Y163673D01*
Y160327D02*
X178209D01*
X166791Y163673D02*
X178209D01*
Y160327D02*
Y163673D01*
D14*
X195600Y150550D02*
Y158450D01*
X208400Y150550D02*
Y158450D01*
D15*
X104000Y196999D02*
Y195000D01*
X105000Y194000D01*
X105999Y195000D01*
Y196999D01*
X106999Y195500D02*
X108998D01*
X112997Y196999D02*
Y195000D01*
X113997Y194000D01*
X114996Y195000D01*
Y196999D01*
X115996Y195500D02*
X117996D01*
X116996Y196499D02*
Y194500D01*
X124993Y196999D02*
Y195000D01*
X125993Y194000D01*
X126993Y195000D01*
Y196999D01*
X127992Y195500D02*
X129992D01*
X133990Y196999D02*
X135990D01*
X134990D01*
Y194000D01*
X136989Y195500D02*
X138989D01*
X142987Y196999D02*
X144987D01*
X143987D01*
Y194000D01*
X145986Y195500D02*
X147986D01*
X146986Y196499D02*
Y194500D01*
X166500Y196999D02*
Y195000D01*
X167500Y194000D01*
X168499Y195000D01*
Y196999D01*
X169499Y195500D02*
X171498D01*
X175497Y196999D02*
Y195000D01*
X176497Y194000D01*
X177496Y195000D01*
Y196999D01*
X178496Y195500D02*
X180496D01*
X179496Y196499D02*
Y194500D01*
X187493Y196999D02*
Y195000D01*
X188493Y194000D01*
X189493Y195000D01*
Y196999D01*
X190492Y195500D02*
X192492D01*
X196490Y194000D02*
Y196999D01*
X197990D01*
X198490Y196499D01*
Y195500D01*
X197990Y195000D01*
X196490D01*
X197490D02*
X198490Y194000D01*
X199489Y195500D02*
X201489D01*
X205487Y194000D02*
Y196999D01*
X206987D01*
X207487Y196499D01*
Y195500D01*
X206987Y195000D01*
X205487D01*
X206487D02*
X207487Y194000D01*
X208486Y195500D02*
X210486D01*
X209486Y196499D02*
Y194500D01*
X170001Y174000D02*
Y171500D01*
X170501Y171001D01*
X171500D01*
X172000Y171500D01*
Y174000D01*
X174999D02*
X173000D01*
Y172500D01*
X174000Y173000D01*
X174499D01*
X174999Y172500D01*
Y171500D01*
X174499Y171001D01*
X173500D01*
X173000Y171500D01*
X210000Y154001D02*
X212500D01*
X213000Y154500D01*
Y155500D01*
X212500Y156000D01*
X210000D01*
X213000Y157000D02*
Y157999D01*
Y157500D01*
X210000D01*
X210500Y157000D01*
X201532Y113500D02*
Y116499D01*
X203032D01*
X203532Y116000D01*
Y115000D01*
X203032Y114500D01*
X201532D01*
X202532D02*
X203532Y113500D01*
X204531Y116000D02*
X205031Y116499D01*
X206031D01*
X206531Y116000D01*
Y115500D01*
X206031Y115000D01*
X205531D01*
X206031D01*
X206531Y114500D01*
Y114000D01*
X206031Y113500D01*
X205031D01*
X204531Y114000D01*
X173751Y116000D02*
X173251Y116499D01*
X172251D01*
X171751Y116000D01*
Y114000D01*
X172251Y113500D01*
X173251D01*
X173751Y114000D01*
X174750Y113500D02*
X175750D01*
X175250D01*
Y116499D01*
X174750Y116000D01*
X177249D02*
X177749Y116499D01*
X178749D01*
X179249Y116000D01*
Y114000D01*
X178749Y113500D01*
X177749D01*
X177249Y114000D01*
Y116000D01*
X172969Y144500D02*
X172469Y145000D01*
X171469D01*
X170969Y144500D01*
Y142500D01*
X171469Y142000D01*
X172469D01*
X172969Y142500D01*
X173968D02*
X174468Y142000D01*
X175468D01*
X175968Y142500D01*
Y144500D01*
X175468Y145000D01*
X174468D01*
X173968Y144500D01*
Y144000D01*
X174468Y143500D01*
X175968D01*
X162000Y162500D02*
X161501Y162000D01*
Y161001D01*
X162000Y160501D01*
X164000D01*
X164499Y161001D01*
Y162000D01*
X164000Y162500D01*
X161501Y165499D02*
X162000Y164499D01*
X163000Y163500D01*
X164000D01*
X164499Y164000D01*
Y164999D01*
X164000Y165499D01*
X163500D01*
X163000Y164999D01*
Y163500D01*
X194000Y183000D02*
X193500Y183500D01*
X192501D01*
X192001Y183000D01*
Y181000D01*
X192501Y180500D01*
X193500D01*
X194000Y181000D01*
X196999Y183500D02*
X195000D01*
Y182000D01*
X196000Y182500D01*
X196499D01*
X196999Y182000D01*
Y181000D01*
X196499Y180500D01*
X195500D01*
X195000Y181000D01*
X190000Y165500D02*
X189500Y165999D01*
X188501D01*
X188001Y165500D01*
Y163500D01*
X188501Y163001D01*
X189500D01*
X190000Y163500D01*
X192499Y163001D02*
Y165999D01*
X191000Y164500D01*
X192999D01*
X144500Y117500D02*
X144000Y117999D01*
X143001D01*
X142501Y117500D01*
Y115500D01*
X143001Y115000D01*
X144000D01*
X144500Y115500D01*
X145500Y117500D02*
X146000Y117999D01*
X146999D01*
X147499Y117500D01*
Y117000D01*
X146999Y116500D01*
X147499Y116000D01*
Y115500D01*
X146999Y115000D01*
X146000D01*
X145500Y115500D01*
Y116000D01*
X146000Y116500D01*
X145500Y117000D01*
Y117500D01*
X146000Y116500D02*
X146999D01*
X123000Y162500D02*
X122501Y162000D01*
Y161001D01*
X123000Y160501D01*
X125000D01*
X125499Y161001D01*
Y162000D01*
X125000Y162500D01*
X122501Y163500D02*
Y165499D01*
X123000D01*
X125000Y163500D01*
X125499D01*
X138501Y184500D02*
Y182000D01*
X139001Y181500D01*
X140000D01*
X140500Y182000D01*
Y184500D01*
X141500Y184000D02*
X142000Y184500D01*
X142999D01*
X143499Y184000D01*
Y183500D01*
X142999Y183000D01*
X142499D01*
X142999D01*
X143499Y182500D01*
Y182000D01*
X142999Y181500D01*
X142000D01*
X141500Y182000D01*
X111001Y182500D02*
Y180000D01*
X111501Y179500D01*
X112500D01*
X113000Y180000D01*
Y182500D01*
X115999Y179500D02*
X114000D01*
X115999Y181500D01*
Y182000D01*
X115499Y182500D01*
X114500D01*
X114000Y182000D01*
X132001Y148999D02*
X135000D01*
Y147500D01*
X134500Y147000D01*
X133500D01*
X133000Y147500D01*
Y148999D01*
Y148000D02*
X132001Y147000D01*
Y144001D02*
Y146000D01*
X134000Y144001D01*
X134500D01*
X135000Y144501D01*
Y145500D01*
X134500Y146000D01*
X113501Y115500D02*
Y118500D01*
X115000D01*
X115500Y118000D01*
Y117000D01*
X115000Y116500D01*
X113501D01*
X114500D02*
X115500Y115500D01*
X116500D02*
X117499D01*
X116999D01*
Y118500D01*
X116500Y118000D01*
M02*
