G04*
G04 #@! TF.GenerationSoftware,Altium Limited,Altium Designer,20.2.6 (244)*
G04*
G04 Layer_Color=255*
%FSLAX25Y25*%
%MOIN*%
G70*
G04*
G04 #@! TF.SameCoordinates,C884C1E4-69B8-4AE2-8FFD-ECE4C5FCCFCF*
G04*
G04*
G04 #@! TF.FilePolarity,Positive*
G04*
G01*
G75*
%ADD16R,0.04724X0.08661*%
%ADD17R,0.13780X0.08661*%
%ADD18R,0.02362X0.06102*%
%ADD20R,0.06693X0.04331*%
%ADD21R,0.02200X0.03850*%
%ADD22R,0.01968X0.02362*%
%ADD23R,0.04331X0.06693*%
%ADD24R,0.02362X0.01968*%
%ADD25R,0.03937X0.05118*%
%ADD40R,0.02362X0.04134*%
%ADD45C,0.05000*%
%ADD46C,0.06000*%
%ADD47R,0.06000X0.06000*%
%ADD48R,0.06299X0.06299*%
%ADD49C,0.06299*%
D16*
X122555Y172909D02*
D03*
X113500D02*
D03*
X104445D02*
D03*
D17*
X113500Y148500D02*
D03*
D18*
X149500Y176260D02*
D03*
X144500D02*
D03*
X139500D02*
D03*
X134500D02*
D03*
X149500Y155000D02*
D03*
X144500D02*
D03*
X139500D02*
D03*
X134500D02*
D03*
D20*
X188000Y148185D02*
D03*
Y158815D02*
D03*
D21*
X198260Y159875D02*
D03*
X202000D02*
D03*
X205740D02*
D03*
Y149125D02*
D03*
X202000D02*
D03*
X198260D02*
D03*
D22*
X163500Y156468D02*
D03*
Y152532D02*
D03*
X129000Y166469D02*
D03*
Y162531D02*
D03*
X129000Y149063D02*
D03*
Y153000D02*
D03*
D23*
X199315Y175000D02*
D03*
X188685D02*
D03*
D24*
X174969Y148000D02*
D03*
X171031D02*
D03*
X186469Y115000D02*
D03*
X182531D02*
D03*
X197500Y115000D02*
D03*
X193563D02*
D03*
X135031Y116500D02*
D03*
X138969D02*
D03*
D25*
X128150Y116500D02*
D03*
X121850D02*
D03*
D40*
X176240Y156685D02*
D03*
X168760D02*
D03*
Y167315D02*
D03*
X172500D02*
D03*
X176240D02*
D03*
D45*
X193000Y125500D02*
D03*
X183000D02*
D03*
Y135500D02*
D03*
X193000D02*
D03*
X132000D02*
D03*
X122000D02*
D03*
Y125500D02*
D03*
X132000D02*
D03*
D46*
X203000D02*
D03*
X173000D02*
D03*
X203000Y135500D02*
D03*
X142000D02*
D03*
X112000Y125500D02*
D03*
X142000D02*
D03*
D47*
X173000Y135500D02*
D03*
X112000D02*
D03*
D48*
X169000Y187500D02*
D03*
X106000D02*
D03*
D49*
X179000D02*
D03*
X189000D02*
D03*
X199000D02*
D03*
X209000D02*
D03*
X116000D02*
D03*
X126000D02*
D03*
X136000D02*
D03*
X146000D02*
D03*
M02*
