M48
;Layer_Color=9474304
;FILE_FORMAT=2:5
INCH,LZ
;TYPE=PLATED
T1F00S00C0.02800
T2F00S00C0.03000
T3F00S00C0.04331
%
T01
X0135Y0111
X01395Y01465
X01805Y01505
X0207Y0141
X01865Y01085
X0211Y0168
X0142Y0165
X0129Y0157681
Y0176
X01045Y01625
T02
X0112Y01255
Y01355
X0122
X0132
X0142
Y01255
X0132
X0122
X0173
X0183
X0193
X0203
Y01355
X0193
X0183
X0173
T03
X0169Y01875
X0179
X0189
X0199
X0209
X0146
X0136
X0126
X0116
X0106
M30
