G04*
G04 #@! TF.GenerationSoftware,Altium Limited,Altium Designer,20.2.6 (244)*
G04*
G04 Layer_Physical_Order=2*
G04 Layer_Color=16711680*
%FSLAX25Y25*%
%MOIN*%
G70*
G04*
G04 #@! TF.SameCoordinates,C884C1E4-69B8-4AE2-8FFD-ECE4C5FCCFCF*
G04*
G04*
G04 #@! TF.FilePolarity,Positive*
G04*
G01*
G75*
%ADD23R,0.04331X0.06693*%
%ADD24R,0.02362X0.01968*%
%ADD41C,0.01000*%
%ADD43C,0.01500*%
%ADD45C,0.05000*%
%ADD46C,0.06000*%
%ADD47R,0.06000X0.06000*%
%ADD48R,0.06299X0.06299*%
%ADD49C,0.06299*%
%ADD50R,0.03850X0.02200*%
G36*
X152000Y101000D02*
X101000D01*
Y160524D01*
X101217Y160628D01*
X101500Y160660D01*
X102004Y160004D01*
X102735Y159443D01*
X103586Y159090D01*
X104000Y159036D01*
Y162500D01*
Y165964D01*
X103586Y165910D01*
X102735Y165557D01*
X102004Y164996D01*
X101500Y164340D01*
X101217Y164372D01*
X101000Y164476D01*
Y199000D01*
X152000D01*
Y101000D01*
D02*
G37*
G36*
X213000Y189925D02*
X212500Y189755D01*
X211960Y190460D01*
X211093Y191125D01*
X210083Y191543D01*
X209000Y191685D01*
X207917Y191543D01*
X206907Y191125D01*
X206041Y190460D01*
X205375Y189593D01*
X204957Y188583D01*
X204815Y187500D01*
X204957Y186417D01*
X205375Y185407D01*
X206041Y184540D01*
X206907Y183875D01*
X207917Y183457D01*
X209000Y183315D01*
X210083Y183457D01*
X211093Y183875D01*
X211960Y184540D01*
X212500Y185245D01*
X213000Y185075D01*
Y175697D01*
X212500Y175648D01*
X212413Y176085D01*
X212081Y176581D01*
X202810Y185853D01*
X203043Y186417D01*
X203185Y187500D01*
X203043Y188583D01*
X202625Y189593D01*
X201959Y190460D01*
X201093Y191125D01*
X200083Y191543D01*
X199000Y191685D01*
X197917Y191543D01*
X196907Y191125D01*
X196040Y190460D01*
X195375Y189593D01*
X194957Y188583D01*
X194815Y187500D01*
X194957Y186417D01*
X195375Y185407D01*
X196040Y184540D01*
X196907Y183875D01*
X197917Y183457D01*
X199000Y183315D01*
X200083Y183457D01*
X200647Y183691D01*
X209471Y174866D01*
Y171155D01*
X209235Y171057D01*
X208504Y170496D01*
X207943Y169765D01*
X207590Y168914D01*
X207470Y168000D01*
X207590Y167086D01*
X207943Y166235D01*
X208504Y165504D01*
X209235Y164943D01*
X210086Y164590D01*
X211000Y164470D01*
X211914Y164590D01*
X212500Y164833D01*
X213000Y164524D01*
Y101000D01*
X162000D01*
Y199000D01*
X213000D01*
Y189925D01*
D02*
G37*
%LPC*%
G36*
X110150Y191650D02*
X101850D01*
Y183350D01*
X110150D01*
Y191650D01*
D02*
G37*
G36*
X146000Y191685D02*
X144917Y191543D01*
X143907Y191125D01*
X143041Y190460D01*
X142375Y189593D01*
X141957Y188583D01*
X141815Y187500D01*
X141957Y186417D01*
X142191Y185853D01*
X136169Y179831D01*
X135837Y179335D01*
X135721Y178750D01*
Y171100D01*
X134529D01*
Y183100D01*
X134744Y183298D01*
X134963Y183451D01*
X136000Y183315D01*
X137083Y183457D01*
X138093Y183875D01*
X138960Y184540D01*
X139625Y185407D01*
X140043Y186417D01*
X140185Y187500D01*
X140043Y188583D01*
X139625Y189593D01*
X138960Y190460D01*
X138093Y191125D01*
X137083Y191543D01*
X136000Y191685D01*
X134917Y191543D01*
X133907Y191125D01*
X133040Y190460D01*
X132375Y189593D01*
X131957Y188583D01*
X131815Y187500D01*
X131957Y186417D01*
X132359Y185447D01*
X131919Y185006D01*
X131587Y184510D01*
X131471Y183924D01*
Y179081D01*
X131022Y178860D01*
X130765Y179057D01*
X129914Y179410D01*
X129500Y179464D01*
Y176000D01*
Y172536D01*
X129914Y172590D01*
X130765Y172943D01*
X131022Y173140D01*
X131471Y172919D01*
Y162106D01*
X131587Y161520D01*
X131919Y161024D01*
X132504Y160438D01*
X133001Y160107D01*
X133586Y159990D01*
X134325D01*
Y159420D01*
X139185D01*
X139502Y159033D01*
X139502Y159031D01*
Y156984D01*
X138850D01*
Y153016D01*
X144468D01*
Y155000D01*
X145468D01*
Y153016D01*
X146471D01*
Y150134D01*
X144367Y148029D01*
X142655D01*
X142557Y148265D01*
X141996Y148996D01*
X141265Y149557D01*
X140414Y149910D01*
X139500Y150030D01*
X138586Y149910D01*
X137735Y149557D01*
X137004Y148996D01*
X136443Y148265D01*
X136090Y147414D01*
X135970Y146500D01*
X136090Y145586D01*
X136443Y144735D01*
X137004Y144004D01*
X137735Y143443D01*
X138586Y143090D01*
X139500Y142970D01*
X140414Y143090D01*
X141265Y143443D01*
X141996Y144004D01*
X142557Y144735D01*
X142655Y144971D01*
X145000D01*
X145585Y145087D01*
X146081Y145419D01*
X149081Y148419D01*
X149413Y148915D01*
X149529Y149500D01*
Y159420D01*
X150925D01*
Y163160D01*
Y166900D01*
Y168500D01*
X148000D01*
X145075D01*
Y167563D01*
X144575Y167394D01*
X144496Y167496D01*
X143765Y168057D01*
X142914Y168410D01*
X142000Y168530D01*
X141086Y168410D01*
X140675Y168239D01*
X140175Y168574D01*
Y171100D01*
X138779D01*
Y178117D01*
X144353Y183691D01*
X144917Y183457D01*
X146000Y183315D01*
X147083Y183457D01*
X148093Y183875D01*
X148960Y184540D01*
X149625Y185407D01*
X150043Y186417D01*
X150185Y187500D01*
X150043Y188583D01*
X149625Y189593D01*
X148960Y190460D01*
X148093Y191125D01*
X147083Y191543D01*
X146000Y191685D01*
D02*
G37*
G36*
X126000D02*
X124917Y191543D01*
X123907Y191125D01*
X123040Y190460D01*
X122375Y189593D01*
X121957Y188583D01*
X121815Y187500D01*
X121957Y186417D01*
X122375Y185407D01*
X123040Y184540D01*
X123907Y183875D01*
X124917Y183457D01*
X126000Y183315D01*
X127083Y183457D01*
X128093Y183875D01*
X128960Y184540D01*
X129625Y185407D01*
X130043Y186417D01*
X130185Y187500D01*
X130043Y188583D01*
X129625Y189593D01*
X128960Y190460D01*
X128093Y191125D01*
X127083Y191543D01*
X126000Y191685D01*
D02*
G37*
G36*
X128500Y179464D02*
X128086Y179410D01*
X127235Y179057D01*
X126504Y178496D01*
X125943Y177765D01*
X125590Y176914D01*
X125536Y176500D01*
X128500D01*
Y179464D01*
D02*
G37*
G36*
Y175500D02*
X125536D01*
X125590Y175086D01*
X125943Y174235D01*
X126504Y173504D01*
X127235Y172943D01*
X128086Y172590D01*
X128500Y172536D01*
Y175500D01*
D02*
G37*
G36*
X150925Y171100D02*
X148500D01*
Y169500D01*
X150925D01*
Y171100D01*
D02*
G37*
G36*
X147500D02*
X145075D01*
Y169500D01*
X147500D01*
Y171100D01*
D02*
G37*
G36*
X116000Y191685D02*
X114917Y191543D01*
X113907Y191125D01*
X113040Y190460D01*
X112375Y189593D01*
X111957Y188583D01*
X111815Y187500D01*
X111957Y186417D01*
X112375Y185407D01*
X113040Y184540D01*
X113907Y183875D01*
X114216Y183748D01*
Y180739D01*
X109423Y175947D01*
X109037Y175368D01*
X108901Y174685D01*
Y171346D01*
X107520D01*
Y165092D01*
X107046Y164931D01*
X106996Y164996D01*
X106265Y165557D01*
X105414Y165910D01*
X105000Y165964D01*
Y162500D01*
Y159036D01*
X105414Y159090D01*
X106265Y159443D01*
X106996Y160004D01*
X107046Y160069D01*
X107520Y159908D01*
Y158000D01*
X110185D01*
Y161846D01*
X108323D01*
X107994Y162222D01*
X108030Y162500D01*
X108165Y162654D01*
X113850D01*
Y171346D01*
X112469D01*
Y173946D01*
X117262Y178738D01*
X117648Y179317D01*
X117784Y180000D01*
X117784Y180000D01*
Y183748D01*
X118093Y183875D01*
X118959Y184540D01*
X119625Y185407D01*
X120043Y186417D01*
X120185Y187500D01*
X120043Y188583D01*
X119625Y189593D01*
X118959Y190460D01*
X118093Y191125D01*
X117083Y191543D01*
X116000Y191685D01*
D02*
G37*
G36*
X113850Y161846D02*
X111185D01*
Y158000D01*
X113850D01*
Y161846D01*
D02*
G37*
G36*
X124480Y171346D02*
X118150D01*
Y162654D01*
X119786D01*
Y161846D01*
X118150D01*
Y153154D01*
X124480D01*
Y156152D01*
X125845D01*
X125943Y155916D01*
X126504Y155185D01*
X127235Y154624D01*
X128086Y154271D01*
X129000Y154151D01*
X129914Y154271D01*
X130765Y154624D01*
X131496Y155185D01*
X132057Y155916D01*
X132410Y156767D01*
X132530Y157681D01*
X132410Y158595D01*
X132057Y159446D01*
X131496Y160177D01*
X130765Y160738D01*
X129914Y161091D01*
X129000Y161211D01*
X128086Y161091D01*
X127235Y160738D01*
X126504Y160177D01*
X125943Y159446D01*
X125845Y159211D01*
X124480D01*
Y161846D01*
X122844D01*
Y162654D01*
X124480D01*
Y171346D01*
D02*
G37*
G36*
X113850Y157000D02*
X111185D01*
Y153154D01*
X113850D01*
Y157000D01*
D02*
G37*
G36*
X110185D02*
X107520D01*
Y153154D01*
X110185D01*
Y157000D01*
D02*
G37*
G36*
X132000Y139030D02*
X131086Y138910D01*
X130235Y138557D01*
X129504Y137996D01*
X128943Y137265D01*
X128590Y136414D01*
X128470Y135500D01*
X128590Y134586D01*
X128943Y133735D01*
X129504Y133004D01*
X130235Y132443D01*
X131086Y132090D01*
X132000Y131970D01*
X132914Y132090D01*
X133765Y132443D01*
X134496Y133004D01*
X135057Y133735D01*
X135410Y134586D01*
X135530Y135500D01*
X135410Y136414D01*
X135057Y137265D01*
X134496Y137996D01*
X133765Y138557D01*
X132914Y138910D01*
X132000Y139030D01*
D02*
G37*
G36*
X122000D02*
X121086Y138910D01*
X120235Y138557D01*
X119504Y137996D01*
X118943Y137265D01*
X118590Y136414D01*
X118470Y135500D01*
X118590Y134586D01*
X118943Y133735D01*
X119504Y133004D01*
X120235Y132443D01*
X121086Y132090D01*
X122000Y131970D01*
X122914Y132090D01*
X123765Y132443D01*
X124496Y133004D01*
X125057Y133735D01*
X125410Y134586D01*
X125530Y135500D01*
X125410Y136414D01*
X125057Y137265D01*
X124496Y137996D01*
X123765Y138557D01*
X122914Y138910D01*
X122000Y139030D01*
D02*
G37*
G36*
X116000Y139500D02*
X108000D01*
Y131500D01*
X116000D01*
Y139500D01*
D02*
G37*
G36*
X142000Y139534D02*
X140956Y139397D01*
X139983Y138994D01*
X139147Y138353D01*
X138506Y137517D01*
X138103Y136544D01*
X137966Y135500D01*
X138103Y134456D01*
X138506Y133483D01*
X139147Y132647D01*
X139983Y132006D01*
X140956Y131603D01*
X142000Y131465D01*
X143044Y131603D01*
X144017Y132006D01*
X144853Y132647D01*
X145494Y133483D01*
X145897Y134456D01*
X146035Y135500D01*
X145897Y136544D01*
X145494Y137517D01*
X144853Y138353D01*
X144017Y138994D01*
X143044Y139397D01*
X142000Y139534D01*
D02*
G37*
G36*
X132000Y129030D02*
X131086Y128910D01*
X130235Y128557D01*
X129504Y127996D01*
X128943Y127265D01*
X128590Y126414D01*
X128470Y125500D01*
X128590Y124586D01*
X128943Y123735D01*
X129504Y123004D01*
X130235Y122443D01*
X131086Y122090D01*
X132000Y121970D01*
X132914Y122090D01*
X133765Y122443D01*
X134496Y123004D01*
X135057Y123735D01*
X135410Y124586D01*
X135530Y125500D01*
X135410Y126414D01*
X135057Y127265D01*
X134496Y127996D01*
X133765Y128557D01*
X132914Y128910D01*
X132000Y129030D01*
D02*
G37*
G36*
X122000D02*
X121086Y128910D01*
X120235Y128557D01*
X119504Y127996D01*
X118943Y127265D01*
X118590Y126414D01*
X118470Y125500D01*
X118590Y124586D01*
X118943Y123735D01*
X119504Y123004D01*
X120235Y122443D01*
X121086Y122090D01*
X122000Y121970D01*
X122914Y122090D01*
X123765Y122443D01*
X124496Y123004D01*
X125057Y123735D01*
X125410Y124586D01*
X125530Y125500D01*
X125410Y126414D01*
X125057Y127265D01*
X124496Y127996D01*
X123765Y128557D01*
X122914Y128910D01*
X122000Y129030D01*
D02*
G37*
G36*
X142000Y129534D02*
X140956Y129397D01*
X139983Y128994D01*
X139147Y128353D01*
X138506Y127517D01*
X138103Y126544D01*
X137966Y125500D01*
X138103Y124456D01*
X138506Y123483D01*
X139147Y122647D01*
X139983Y122006D01*
X140956Y121603D01*
X142000Y121466D01*
X143044Y121603D01*
X144017Y122006D01*
X144853Y122647D01*
X145494Y123483D01*
X145897Y124456D01*
X146035Y125500D01*
X145897Y126544D01*
X145494Y127517D01*
X144853Y128353D01*
X144017Y128994D01*
X143044Y129397D01*
X142000Y129534D01*
D02*
G37*
G36*
X112000D02*
X110956Y129397D01*
X109983Y128994D01*
X109147Y128353D01*
X108506Y127517D01*
X108103Y126544D01*
X107966Y125500D01*
X108103Y124456D01*
X108506Y123483D01*
X109147Y122647D01*
X109983Y122006D01*
X110956Y121603D01*
X112000Y121466D01*
X113044Y121603D01*
X114017Y122006D01*
X114853Y122647D01*
X115494Y123483D01*
X115897Y124456D01*
X116034Y125500D01*
X115897Y126544D01*
X115494Y127517D01*
X114853Y128353D01*
X114017Y128994D01*
X113044Y129397D01*
X112000Y129534D01*
D02*
G37*
G36*
X135500Y114464D02*
Y111500D01*
X138464D01*
X138410Y111914D01*
X138057Y112765D01*
X137496Y113496D01*
X136765Y114057D01*
X135914Y114410D01*
X135500Y114464D01*
D02*
G37*
G36*
X134500D02*
X134086Y114410D01*
X133235Y114057D01*
X132504Y113496D01*
X131943Y112765D01*
X131590Y111914D01*
X131536Y111500D01*
X134500D01*
Y114464D01*
D02*
G37*
G36*
X138464Y110500D02*
X135500D01*
Y107536D01*
X135914Y107590D01*
X136765Y107943D01*
X137496Y108504D01*
X138057Y109235D01*
X138410Y110086D01*
X138464Y110500D01*
D02*
G37*
G36*
X134500D02*
X131536D01*
X131590Y110086D01*
X131943Y109235D01*
X132504Y108504D01*
X133235Y107943D01*
X134086Y107590D01*
X134500Y107536D01*
Y110500D01*
D02*
G37*
G36*
X173150Y191650D02*
X164850D01*
Y183350D01*
X173150D01*
Y191650D01*
D02*
G37*
G36*
X189000Y191685D02*
X187917Y191543D01*
X186907Y191125D01*
X186040Y190460D01*
X185375Y189593D01*
X184957Y188583D01*
X184815Y187500D01*
X184957Y186417D01*
X185375Y185407D01*
X186040Y184540D01*
X186907Y183875D01*
X187917Y183457D01*
X189000Y183315D01*
X190083Y183457D01*
X191093Y183875D01*
X191960Y184540D01*
X192625Y185407D01*
X193043Y186417D01*
X193185Y187500D01*
X193043Y188583D01*
X192625Y189593D01*
X191960Y190460D01*
X191093Y191125D01*
X190083Y191543D01*
X189000Y191685D01*
D02*
G37*
G36*
X179000D02*
X177917Y191543D01*
X176907Y191125D01*
X176040Y190460D01*
X175375Y189593D01*
X174957Y188583D01*
X174815Y187500D01*
X174957Y186417D01*
X175375Y185407D01*
X176040Y184540D01*
X176907Y183875D01*
X177917Y183457D01*
X179000Y183315D01*
X180083Y183457D01*
X181093Y183875D01*
X181959Y184540D01*
X182625Y185407D01*
X183043Y186417D01*
X183185Y187500D01*
X183043Y188583D01*
X182625Y189593D01*
X181959Y190460D01*
X181093Y191125D01*
X180083Y191543D01*
X179000Y191685D01*
D02*
G37*
G36*
X181000Y153964D02*
Y151000D01*
X183964D01*
X183910Y151414D01*
X183557Y152265D01*
X182996Y152996D01*
X182265Y153557D01*
X181414Y153910D01*
X181000Y153964D01*
D02*
G37*
G36*
X180000D02*
X179586Y153910D01*
X178735Y153557D01*
X178004Y152996D01*
X177443Y152265D01*
X177090Y151414D01*
X177036Y151000D01*
X180000D01*
Y153964D01*
D02*
G37*
G36*
X183964Y150000D02*
X181000D01*
Y147036D01*
X181414Y147090D01*
X182265Y147443D01*
X182996Y148004D01*
X183557Y148735D01*
X183910Y149586D01*
X183964Y150000D01*
D02*
G37*
G36*
X180000D02*
X177036D01*
X177090Y149586D01*
X177443Y148735D01*
X178004Y148004D01*
X178735Y147443D01*
X179586Y147090D01*
X180000Y147036D01*
Y150000D01*
D02*
G37*
G36*
X207500Y144464D02*
Y141500D01*
X210464D01*
X210410Y141914D01*
X210057Y142765D01*
X209496Y143496D01*
X208765Y144057D01*
X207914Y144410D01*
X207500Y144464D01*
D02*
G37*
G36*
X206500D02*
X206086Y144410D01*
X205235Y144057D01*
X204504Y143496D01*
X203943Y142765D01*
X203590Y141914D01*
X203536Y141500D01*
X206500D01*
Y144464D01*
D02*
G37*
G36*
X210464Y140500D02*
X203536D01*
X203590Y140086D01*
X203675Y139883D01*
X203370Y139486D01*
X203000Y139534D01*
X201956Y139397D01*
X200983Y138994D01*
X200147Y138353D01*
X199506Y137517D01*
X199103Y136544D01*
X198966Y135500D01*
X199103Y134456D01*
X199506Y133483D01*
X200147Y132647D01*
X200983Y132006D01*
X201956Y131603D01*
X203000Y131465D01*
X204044Y131603D01*
X205017Y132006D01*
X205853Y132647D01*
X206494Y133483D01*
X206897Y134456D01*
X207034Y135500D01*
X206897Y136544D01*
X206707Y137004D01*
X206966Y137416D01*
X207052Y137477D01*
X207914Y137590D01*
X208765Y137943D01*
X209496Y138504D01*
X210057Y139235D01*
X210410Y140086D01*
X210464Y140500D01*
D02*
G37*
G36*
X183500Y138964D02*
Y136000D01*
X186464D01*
X186410Y136414D01*
X186057Y137265D01*
X185496Y137996D01*
X184765Y138557D01*
X183914Y138910D01*
X183500Y138964D01*
D02*
G37*
G36*
X182500D02*
X182086Y138910D01*
X181235Y138557D01*
X180504Y137996D01*
X179943Y137265D01*
X179590Y136414D01*
X179536Y136000D01*
X182500D01*
Y138964D01*
D02*
G37*
G36*
X186464Y135000D02*
X183500D01*
Y132036D01*
X183914Y132090D01*
X184765Y132443D01*
X185496Y133004D01*
X186057Y133735D01*
X186410Y134586D01*
X186464Y135000D01*
D02*
G37*
G36*
X182500D02*
X179536D01*
X179590Y134586D01*
X179943Y133735D01*
X180504Y133004D01*
X181235Y132443D01*
X182086Y132090D01*
X182500Y132036D01*
Y135000D01*
D02*
G37*
G36*
X193000Y139030D02*
X192086Y138910D01*
X191235Y138557D01*
X190504Y137996D01*
X189943Y137265D01*
X189590Y136414D01*
X189470Y135500D01*
X189590Y134586D01*
X189943Y133735D01*
X190504Y133004D01*
X191235Y132443D01*
X192086Y132090D01*
X193000Y131970D01*
X193914Y132090D01*
X194765Y132443D01*
X195496Y133004D01*
X196057Y133735D01*
X196410Y134586D01*
X196530Y135500D01*
X196410Y136414D01*
X196057Y137265D01*
X195496Y137996D01*
X194765Y138557D01*
X193914Y138910D01*
X193000Y139030D01*
D02*
G37*
G36*
X177000Y139500D02*
X169000D01*
Y131500D01*
X177000D01*
Y139500D01*
D02*
G37*
G36*
X193000Y129030D02*
X192086Y128910D01*
X191235Y128557D01*
X190504Y127996D01*
X189943Y127265D01*
X189590Y126414D01*
X189470Y125500D01*
X189590Y124586D01*
X189943Y123735D01*
X190504Y123004D01*
X191235Y122443D01*
X192086Y122090D01*
X193000Y121970D01*
X193914Y122090D01*
X194765Y122443D01*
X195496Y123004D01*
X196057Y123735D01*
X196410Y124586D01*
X196530Y125500D01*
X196410Y126414D01*
X196057Y127265D01*
X195496Y127996D01*
X194765Y128557D01*
X193914Y128910D01*
X193000Y129030D01*
D02*
G37*
G36*
X183000D02*
X182086Y128910D01*
X181235Y128557D01*
X180504Y127996D01*
X179943Y127265D01*
X179590Y126414D01*
X179470Y125500D01*
X179590Y124586D01*
X179943Y123735D01*
X180504Y123004D01*
X181235Y122443D01*
X182086Y122090D01*
X183000Y121970D01*
X183914Y122090D01*
X184765Y122443D01*
X185496Y123004D01*
X186057Y123735D01*
X186410Y124586D01*
X186530Y125500D01*
X186410Y126414D01*
X186057Y127265D01*
X185496Y127996D01*
X184765Y128557D01*
X183914Y128910D01*
X183000Y129030D01*
D02*
G37*
G36*
X203000Y129534D02*
X201956Y129397D01*
X200983Y128994D01*
X200147Y128353D01*
X199506Y127517D01*
X199103Y126544D01*
X198966Y125500D01*
X199103Y124456D01*
X199506Y123483D01*
X200147Y122647D01*
X200983Y122006D01*
X201956Y121603D01*
X203000Y121466D01*
X204044Y121603D01*
X205017Y122006D01*
X205853Y122647D01*
X206494Y123483D01*
X206897Y124456D01*
X207034Y125500D01*
X206897Y126544D01*
X206494Y127517D01*
X205853Y128353D01*
X205017Y128994D01*
X204044Y129397D01*
X203000Y129534D01*
D02*
G37*
G36*
X173000D02*
X171956Y129397D01*
X170983Y128994D01*
X170147Y128353D01*
X169506Y127517D01*
X169103Y126544D01*
X168965Y125500D01*
X169103Y124456D01*
X169506Y123483D01*
X170147Y122647D01*
X170983Y122006D01*
X171956Y121603D01*
X173000Y121466D01*
X174044Y121603D01*
X175017Y122006D01*
X175853Y122647D01*
X176494Y123483D01*
X176897Y124456D01*
X177034Y125500D01*
X176897Y126544D01*
X176494Y127517D01*
X175853Y128353D01*
X175017Y128994D01*
X174044Y129397D01*
X173000Y129534D01*
D02*
G37*
G36*
X187000Y111964D02*
Y109000D01*
X189964D01*
X189910Y109414D01*
X189557Y110265D01*
X188996Y110996D01*
X188265Y111557D01*
X187414Y111910D01*
X187000Y111964D01*
D02*
G37*
G36*
X186000D02*
X185586Y111910D01*
X184735Y111557D01*
X184004Y110996D01*
X183443Y110265D01*
X183090Y109414D01*
X183036Y109000D01*
X186000D01*
Y111964D01*
D02*
G37*
G36*
X189964Y108000D02*
X187000D01*
Y105036D01*
X187414Y105090D01*
X188265Y105443D01*
X188996Y106004D01*
X189557Y106735D01*
X189910Y107586D01*
X189964Y108000D01*
D02*
G37*
G36*
X186000D02*
X183036D01*
X183090Y107586D01*
X183443Y106735D01*
X184004Y106004D01*
X184735Y105443D01*
X185586Y105090D01*
X186000Y105036D01*
Y108000D01*
D02*
G37*
%LPD*%
D23*
X110685Y167000D02*
D03*
X121315D02*
D03*
X110685Y157500D02*
D03*
X121315D02*
D03*
D24*
X144968Y155000D02*
D03*
X141032D02*
D03*
D41*
X211000Y168000D02*
Y175500D01*
X199000Y187500D02*
X211000Y175500D01*
X141032Y159031D02*
X142000Y160000D01*
Y165000D01*
X141032Y155000D02*
Y159031D01*
X121315Y157500D02*
X121496Y157681D01*
X129000D01*
X121315Y157500D02*
Y167000D01*
X142260Y165260D02*
X148000D01*
X142000Y165000D02*
X142260Y165260D01*
X133000Y162106D02*
Y183924D01*
X136000Y186925D02*
Y187500D01*
X133000Y162106D02*
X133586Y161520D01*
X133000Y183924D02*
X136000Y186925D01*
X133586Y161520D02*
X137250D01*
X139500Y146500D02*
X145000D01*
X148000Y149500D02*
Y161520D01*
X145000Y146500D02*
X148000Y149500D01*
Y161520D02*
X148135Y161384D01*
X137250Y169000D02*
Y178750D01*
X146000Y187500D01*
D43*
X110685Y167000D02*
Y174685D01*
X116000Y180000D02*
Y187500D01*
X110685Y174685D02*
X116000Y180000D01*
D45*
X193000Y125500D02*
D03*
X183000D02*
D03*
Y135500D02*
D03*
X193000D02*
D03*
X132000D02*
D03*
X122000D02*
D03*
Y125500D02*
D03*
X132000D02*
D03*
X129000Y176000D02*
D03*
X139500Y146500D02*
D03*
X180500Y150500D02*
D03*
X207000Y141000D02*
D03*
X211000Y168000D02*
D03*
X186500Y108500D02*
D03*
X129000Y157681D02*
D03*
X142000Y165000D02*
D03*
X104500Y162500D02*
D03*
X135000Y111000D02*
D03*
D46*
X203000Y125500D02*
D03*
X173000D02*
D03*
X203000Y135500D02*
D03*
X142000D02*
D03*
X112000Y125500D02*
D03*
X142000D02*
D03*
D47*
X173000Y135500D02*
D03*
X112000D02*
D03*
D48*
X169000Y187500D02*
D03*
X106000D02*
D03*
D49*
X179000D02*
D03*
X189000D02*
D03*
X199000D02*
D03*
X209000D02*
D03*
X116000D02*
D03*
X126000D02*
D03*
X136000D02*
D03*
X146000D02*
D03*
D50*
X137250Y169000D02*
D03*
Y161520D02*
D03*
X148000D02*
D03*
Y165260D02*
D03*
Y169000D02*
D03*
M02*
